<svg class="MuiBox-root mui-style-1v4pyb3" viewBox="0 0 97 101" fill="none" xmlns="http://www.w3.org/2000/svg" aria-hidden="true" data-testid="ask--query-bar--big-O"><path d="M0.279785 50.1786C0.279785 57.9666 1.63031 64.9443 4.33136 71.1117C7.03241 77.2791 10.6788 82.5236 15.2706 86.8453C19.8624 91.167 25.0169 94.4758 30.7341 96.7717C36.4513 99.0675 42.3711 100.215 48.4935 100.215C55.7413 100.215 62.2689 98.9325 68.0761 96.3665C73.9284 93.7555 78.9704 90.1541 83.202 85.5623C87.4336 80.9255 90.6749 75.5909 92.9258 69.5586C95.1766 63.5262 96.3021 57.0662 96.3021 50.1786C96.3021 42.4355 94.9516 35.4803 92.2505 29.313C89.5495 23.1456 85.903 17.901 81.3113 13.5793C76.7195 9.25766 71.5425 5.97138 65.7802 3.72051C60.018 1.42462 54.0982 0.276672 48.0208 0.276672C40.818 0.276672 34.268 1.58218 28.3707 4.1932C22.5184 6.75919 17.499 10.3381 13.3123 14.9299C9.12572 19.4766 5.90697 24.7662 3.6561 30.7985C1.40522 36.8309 0.279785 43.2909 0.279785 50.1786ZM15.7433 49.3682C15.7433 40.3647 16.8237 32.3291 18.9846 25.2614C21.1454 18.1936 24.5667 12.6115 29.2485 8.51487C33.9754 4.41828 40.1203 2.36999 47.6832 2.36999C52.7702 2.36999 57.3394 3.58546 61.391 6.0164C65.4876 8.44735 68.9765 11.8462 71.8576 16.2129C74.7837 20.5796 77.0121 25.7341 78.5427 31.6764C80.0733 37.5737 80.8386 44.0337 80.8386 51.0564C80.8386 60.0149 79.7582 68.0505 77.5973 75.1633C75.4365 82.231 71.9926 87.8357 67.2658 91.9773C62.584 96.0739 56.4391 98.1222 48.8311 98.1222C43.7442 98.1222 39.1524 96.9067 35.0558 94.4758C31.0042 92.0448 27.5379 88.646 24.6568 84.2793C21.7756 79.8676 19.5698 74.7131 18.0392 68.8158C16.5086 62.8735 15.7433 56.391 15.7433 49.3682Z" fill="#e4643d"></path></svg>