<svg version="1.2" xmlns="http://www.w3.org/2000/svg" viewBox="0 0 2928 952" width="2928" height="952">
	<title>Captura de pantalla 2024-10-06 a las 21</title>
	<style>
		.s0 { fill: #000000 } 
		.s1 { fill: #e2792e } 
	</style>
	<g>
		<g id="Layer_1">
			<g>
				<path class="s0" d="m2648 639.5l256.1-266h-241.1l-205.2 193v-565.9h-191.1v936.2h187.1l6.3-218.5 220.9 218.5h247l-280-297.3z"/>
				<path class="s1" d="m2131.3 250.9c-66.3 0-119.8-51.1-119.8-114.3 0-63.2 53.5-114.3 119.8-114.3 66.2 0 119.8 51.1 119.8 114.3 0 63.2-53.6 114.3-119.8 114.3z"/>
				<path class="s0" d="m574.2 586.1l-372.2-550.6h-202v899.5h202v-550.5l372.2 550.5h201.9v-899.5h-201.9v550.6z"/>
				<path fill-rule="evenodd" class="s0" d="m1347.4 444.4c61.3 55.1 91.9 125.6 91.9 212.4q0 130.3-92.4 212.5c-61.7 54.7-142.5 82.1-238.4 82.1q-143.8 0-234.7-83.2-90.3-83.7-90.3-216.6 0-125.1 92.9-207.7c62-55.1 138.5-82.7 234.7-82.7q144.4 0 236.3 83.2zm-111.6 210.4q0-52.4-36.4-89c-24.6-24.8-54.3-37.1-88.2-37.1q-50.9-0.1-87.8 37.1c-24.2 24.4-36.4 52-36.4 87.9q0 53.9 36.4 90.5 36.8 37.2 88.3 37.2 51.4 0 87.7-36.6c24.3-24.5 36.4-55.2 36.4-90z"/>
				<path class="s0" d="m2034.7 378.9h-179.8l-135.9 284.8-134.8-284.8h-224l290.6 555.8h133.2l250.7-474.3v474.3h193.1v-555.8h-150-43.1z"/>
			</g>
		</g>
	</g>
</svg>